<svg xmlns="http://www.w3.org/2000/svg" xmlns:xlink="http://www.w3.org/1999/xlink" viewBox="0 0 32 32" fill="#00D676">
  <path d="M16 3L16 5L17 5L17 3 Z M 19.15625 3.4375L18.59375 5.34375L19.375 5.5625L19.4375 5.59375L20.125 5.84375L20.1875 5.875L20.21875 5.875L21.0625 4.0625L20.96875 4.03125L20.9375 4L20.90625 4L20.0625 3.6875L20.03125 3.6875L20 3.65625 Z M 4 4L4 6L7.65625 6C4.796875 8.386719 3 11.941406 3 16C3 23.144531 8.855469 29 16 29C23.144531 29 29 23.144531 29 16L29 15L27 15L27 16C27 22.054688 22.054688 27 16 27C9.945313 27 5 22.054688 5 16C5 12.0625 6.96875 8.761719 10 6.78125L10 12L12 12L12 4 Z M 22.84375 5L21.78125 6.6875L22.25 7L22.3125 7.03125L22.875 7.46875L22.9375 7.5L23.15625 7.6875L24.46875 6.1875L24.1875 5.9375L24.15625 5.9375L24.125 5.90625L23.4375 5.375L23.40625 5.375L23.375 5.34375 Z M 25.90625 7.59375L24.375 8.90625L24.59375 9.15625L24.625 9.1875L25.0625 9.78125L25.125 9.84375L25.40625 10.3125L27.09375 9.21875L26.75 8.6875L26.71875 8.65625L26.71875 8.625L26.1875 7.9375L26.125 7.875 Z M 28.03125 11L26.21875 11.84375L26.21875 11.875L26.25 11.9375L26.5 12.625L26.53125 12.6875L26.75 13.46875L28.65625 12.9375L28.4375 12.09375L28.40625 12.03125L28.40625 12L28.09375 11.1875L28.09375 11.15625L28.0625 11.125Z" fill="#00D676" />
</svg>