<svg xmlns="http://www.w3.org/2000/svg" xmlns:xlink="http://www.w3.org/1999/xlink" viewBox="0 0 100 100" fill="#00D676">
  <path d="M20.984375 14 A 1.0001 1.0001 0 0 0 20 15L20 28 A 1.0001 1.0001 0 0 0 20.292969 28.707031L49.292969 57.707031 A 1.0001 1.0001 0 0 0 50.707031 57.707031L79.707031 28.707031 A 1.0001 1.0001 0 0 0 80 28L80 15 A 1.0001 1.0001 0 0 0 78.292969 14.292969L50 42.585938L21.707031 14.292969 A 1.0001 1.0001 0 0 0 20.984375 14 z M 22 17.414062L49.292969 44.707031 A 1.0001 1.0001 0 0 0 50.707031 44.707031L78 17.414062L78 27.585938L50 55.585938L22 27.585938L22 17.414062 z M 72.496094 28.492188 A 0.50005 0.50005 0 0 0 72.146484 28.646484L55.146484 45.646484L50 50.792969L48.853516 49.646484L37.353516 38.146484L27.853516 28.646484 A 0.50005 0.50005 0 0 0 27.494141 28.494141 A 0.50005 0.50005 0 0 0 27.146484 29.353516L36.646484 38.853516L48.146484 50.353516L49.646484 51.853516 A 0.50005 0.50005 0 0 0 50.353516 51.853516L55.853516 46.353516L72.853516 29.353516 A 0.50005 0.50005 0 0 0 72.496094 28.492188 z M 20.984375 42 A 1.0001 1.0001 0 0 0 20 43L20 56 A 1.0001 1.0001 0 0 0 20.292969 56.707031L49.292969 85.707031 A 1.0001 1.0001 0 0 0 50.707031 85.707031L79.707031 56.707031 A 1.0001 1.0001 0 0 0 80 56L80 43 A 1.0001 1.0001 0 0 0 78.292969 42.292969L50 70.585938L21.707031 42.292969 A 1.0001 1.0001 0 0 0 20.984375 42 z M 22 45.414062L49.292969 72.707031 A 1.0001 1.0001 0 0 0 50.707031 72.707031L78 45.414062L78 55.585938L50 83.585938L22 55.585938L22 45.414062 z M 27.494141 56.494141 A 0.50005 0.50005 0 0 0 27.146484 57.353516L36.646484 66.853516 A 0.50005 0.50005 0 1 0 37.353516 66.146484L27.853516 56.646484 A 0.50005 0.50005 0 0 0 27.494141 56.494141 z M 72.490234 56.496094 A 0.50005 0.50005 0 0 0 72.146484 56.646484L55.146484 73.646484 A 0.50005 0.50005 0 1 0 55.853516 74.353516L72.853516 57.353516 A 0.50005 0.50005 0 0 0 72.490234 56.496094 z M 42.494141 71.494141 A 0.50005 0.50005 0 0 0 42.146484 72.353516L45.646484 75.853516 A 0.50005 0.50005 0 1 0 46.353516 75.146484L42.853516 71.646484 A 0.50005 0.50005 0 0 0 42.494141 71.494141 z M 48.494141 77.494141 A 0.50005 0.50005 0 0 0 48.146484 78.353516L49.646484 79.853516 A 0.50005 0.50005 0 1 0 50.353516 79.146484L48.853516 77.646484 A 0.50005 0.50005 0 0 0 48.494141 77.494141 z" fill="#00D676" />
</svg>