<svg xmlns="http://www.w3.org/2000/svg" xmlns:xlink="http://www.w3.org/1999/xlink" viewBox="0 0 80 80"><path fill="#bae0bd" d="M8,67.5c-1.93,0-3.5-1.57-3.5-3.5V16c0-1.93,1.57-3.5,3.5-3.5h64c1.93,0,3.5,1.57,3.5,3.5v48 c0,1.93-1.57,3.5-3.5,3.5H8z"/><path fill="#5e9c76" d="M72,13c1.654,0,3,1.346,3,3v48c0,1.654-1.346,3-3,3H8c-1.654,0-3-1.346-3-3V16c0-1.654,1.346-3,3-3 H72 M72,12H8c-2.209,0-4,1.791-4,4v48c0,2.209,1.791,4,4,4h64c2.209,0,4-1.791,4-4V16C76,13.791,74.209,12,72,12L72,12z"/><path fill="#44825d" d="M33.227 31.518h3.406v11.935c0 5.044-2.444 5.798-4.914 5.798-.702 0-1.353-.104-1.717-.26l.286-2.86c.312.104.677.13 1.118.13.988 0 1.82-.39 1.82-2.652V31.518zM40.221 45.558c.702.391 1.924.677 2.886.677 1.586 0 2.393-.832 2.393-1.977 0-1.274-.78-1.898-2.263-2.86-2.392-1.456-3.302-3.302-3.302-4.888 0-2.809 1.872-5.148 5.513-5.148 1.17 0 2.262.312 2.756.624l-.546 2.938c-.494-.312-1.248-.599-2.21-.599-1.457 0-2.158.884-2.158 1.82 0 1.04.52 1.586 2.392 2.73 2.34 1.403 3.172 3.172 3.172 5.018 0 3.198-2.366 5.305-5.771 5.305-1.404 0-2.757-.364-3.354-.702L40.221 45.558z"/></svg>