<svg xmlns="http://www.w3.org/2000/svg" xmlns:xlink="http://www.w3.org/1999/xlink" viewBox="0 0 80 80" fill="#00D676">
  <path d="M40.039062 10 A 1.0001 1.0001 0 0 0 39.091797 10.582031L13.341797 66.617188 A 1.0001 1.0001 0 0 0 13.251953 67.042969C13.140484 67.349967 13 67.644212 13 68C13 69.64497 14.35503 71 16 71C16.260136 71 16.488071 70.92295 16.722656 70.861328 A 1.0001 1.0001 0 0 0 17.121094 70.779297L17.126953 70.777344 A 1.0001 1.0001 0 0 0 17.130859 70.775391L17.148438 70.767578C17.213757 70.739128 17.264946 70.713111 17.277344 70.707031L17.283203 70.705078L40 60.103516L62.722656 70.708984L62.71875 70.705078C62.73153 70.711178 62.78264 70.739797 62.878906 70.779297 A 1.0001 1.0001 0 0 0 62.916016 70.792969 A 1.0001 1.0001 0 0 0 63.279297 70.863281C63.512721 70.924234 63.740134 71 64 71C65.64497 71 67 69.64497 67 68C67 67.644212 66.859512 67.349967 66.748047 67.042969 A 1.0001 1.0001 0 0 0 66.658203 66.617188L40.908203 10.582031 A 1.0001 1.0001 0 0 0 40.039062 10 z M 40 13.394531L43.580078 21.1875 A 1 1 0 0 0 43 21 A 1 1 0 0 0 42 22 A 1 1 0 0 0 43 23 A 1 1 0 0 0 43.996094 22.089844L45.117188 24.53125 A 1 1 0 0 0 45 25 A 1 1 0 0 0 45.78125 25.974609L49.009766 33 A 1 1 0 0 0 49 33 A 1 1 0 0 0 48 34 A 1 1 0 0 0 49 35 A 1 1 0 0 0 49.763672 34.642578L54.568359 45.099609 A 1 1 0 0 0 54 46 A 1 1 0 0 0 55 47 A 1 1 0 0 0 55.402344 46.914062L60.212891 57.382812 A 1 1 0 0 0 60 58 A 1 1 0 0 0 60.955078 58.998047L64.179688 66.015625 A 1 1 0 0 0 64 66 A 1 1 0 0 0 63 67 A 1 1 0 0 0 64 68 A 1 1 0 0 0 64.861328 67.507812 A 1.0001 1.0001 0 0 0 64.867188 67.521484C64.956092 67.682979 65 67.836667 65 68C65 68.56503 64.56503 69 64 69C63.880948 69 63.763399 68.977367 63.640625 68.929688L63.638672 68.929688C63.639772 68.930143 63.633966 68.927434 63.634766 68.927734 A 1.0001 1.0001 0 0 0 63.632812 68.927734 A 1.0001 1.0001 0 0 0 62.572266 69.154297L63.054688 68.669922L63.568359 68.896484L58.966797 66.748047 A 1 1 0 0 0 58 66 A 1 1 0 0 0 57.572266 66.097656L55.183594 64.982422 A 1 1 0 0 0 56 64 A 1 1 0 0 0 55 63 A 1 1 0 0 0 54 64 A 1 1 0 0 0 54.130859 64.492188L46.988281 61.158203 A 1 1 0 0 0 47 61 A 1 1 0 0 0 46 60 A 1 1 0 0 0 45.246094 60.345703L40.423828 58.09375 A 1.0001 1.0001 0 0 0 39.576172 58.09375L16.431641 68.894531 A 1.0001 1.0001 0 0 0 16.427734 68.896484C16.394974 68.912004 16.404641 68.909144 16.394531 68.914062L16.945312 68.669922L17.429688 69.152344 A 1.0001 1.0001 0 0 0 16.394531 68.914062C16.392931 68.914862 16.389772 68.915416 16.388672 68.916016C16.387596 68.916543 16.38535 68.916674 16.382812 68.917969C16.373323 68.922809 16.357545 68.932039 16.363281 68.929688 A 1.0001 1.0001 0 0 0 16.335938 68.939453L16.382812 68.917969 A 1.0001 1.0001 0 0 0 16.357422 68.927734C16.234525 68.975646 16.119052 69 16 69C15.43497 69 15 68.56503 15 68C15 67.836667 15.043912 67.682979 15.132812 67.521484 A 1.0001 1.0001 0 0 0 14.962891 66.332031L15.451172 66.818359L40 13.394531 z M 40 18 A 1 1 0 0 0 39 19 A 1 1 0 0 0 40 20 A 1 1 0 0 0 41 19 A 1 1 0 0 0 40 18 z M 40 24 A 1 1 0 0 0 39 25 A 1 1 0 0 0 40 26 A 1 1 0 0 0 41 25 A 1 1 0 0 0 40 24 z M 43 27 A 1 1 0 0 0 42 28 A 1 1 0 0 0 43 29 A 1 1 0 0 0 44 28 A 1 1 0 0 0 43 27 z M 40 30 A 1 1 0 0 0 39 31 A 1 1 0 0 0 40 32 A 1 1 0 0 0 41 31 A 1 1 0 0 0 40 30 z M 46 30 A 1 1 0 0 0 45 31 A 1 1 0 0 0 46 32 A 1 1 0 0 0 47 31 A 1 1 0 0 0 46 30 z M 43 33 A 1 1 0 0 0 42 34 A 1 1 0 0 0 43 35 A 1 1 0 0 0 44 34 A 1 1 0 0 0 43 33 z M 40 36 A 1 1 0 0 0 39 37 A 1 1 0 0 0 40 38 A 1 1 0 0 0 41 37 A 1 1 0 0 0 40 36 z M 46 36 A 1 1 0 0 0 45 37 A 1 1 0 0 0 46 38 A 1 1 0 0 0 47 37 A 1 1 0 0 0 46 36 z M 43 39 A 1 1 0 0 0 42 40 A 1 1 0 0 0 43 41 A 1 1 0 0 0 44 40 A 1 1 0 0 0 43 39 z M 49 39 A 1 1 0 0 0 48 40 A 1 1 0 0 0 49 41 A 1 1 0 0 0 50 40 A 1 1 0 0 0 49 39 z M 40 42 A 1 1 0 0 0 39 43 A 1 1 0 0 0 40 44 A 1 1 0 0 0 41 43 A 1 1 0 0 0 40 42 z M 46 42 A 1 1 0 0 0 45 43 A 1 1 0 0 0 46 44 A 1 1 0 0 0 47 43 A 1 1 0 0 0 46 42 z M 52 42 A 1 1 0 0 0 51 43 A 1 1 0 0 0 52 44 A 1 1 0 0 0 53 43 A 1 1 0 0 0 52 42 z M 43 45 A 1 1 0 0 0 42 46 A 1 1 0 0 0 43 47 A 1 1 0 0 0 44 46 A 1 1 0 0 0 43 45 z M 49 45 A 1 1 0 0 0 48 46 A 1 1 0 0 0 49 47 A 1 1 0 0 0 50 46 A 1 1 0 0 0 49 45 z M 40 48 A 1 1 0 0 0 39 49 A 1 1 0 0 0 40 50 A 1 1 0 0 0 41 49 A 1 1 0 0 0 40 48 z M 46 48 A 1 1 0 0 0 45 49 A 1 1 0 0 0 46 50 A 1 1 0 0 0 47 49 A 1 1 0 0 0 46 48 z M 52 48 A 1 1 0 0 0 51 49 A 1 1 0 0 0 52 50 A 1 1 0 0 0 53 49 A 1 1 0 0 0 52 48 z M 43 51 A 1 1 0 0 0 42 52 A 1 1 0 0 0 43 53 A 1 1 0 0 0 44 52 A 1 1 0 0 0 43 51 z M 49 51 A 1 1 0 0 0 48 52 A 1 1 0 0 0 49 53 A 1 1 0 0 0 50 52 A 1 1 0 0 0 49 51 z M 55 51 A 1 1 0 0 0 54 52 A 1 1 0 0 0 55 53 A 1 1 0 0 0 56 52 A 1 1 0 0 0 55 51 z M 40 54 A 1 1 0 0 0 39 55 A 1 1 0 0 0 40 56 A 1 1 0 0 0 41 55 A 1 1 0 0 0 40 54 z M 46 54 A 1 1 0 0 0 45 55 A 1 1 0 0 0 46 56 A 1 1 0 0 0 47 55 A 1 1 0 0 0 46 54 z M 52 54 A 1 1 0 0 0 51 55 A 1 1 0 0 0 52 56 A 1 1 0 0 0 53 55 A 1 1 0 0 0 52 54 z M 58 54 A 1 1 0 0 0 57 55 A 1 1 0 0 0 58 56 A 1 1 0 0 0 59 55 A 1 1 0 0 0 58 54 z M 43 57 A 1 1 0 0 0 42 58 A 1 1 0 0 0 43 59 A 1 1 0 0 0 44 58 A 1 1 0 0 0 43 57 z M 49 57 A 1 1 0 0 0 48 58 A 1 1 0 0 0 49 59 A 1 1 0 0 0 50 58 A 1 1 0 0 0 49 57 z M 55 57 A 1 1 0 0 0 54 58 A 1 1 0 0 0 55 59 A 1 1 0 0 0 56 58 A 1 1 0 0 0 55 57 z M 52 60 A 1 1 0 0 0 51 61 A 1 1 0 0 0 52 62 A 1 1 0 0 0 53 61 A 1 1 0 0 0 52 60 z M 58 60 A 1 1 0 0 0 57 61 A 1 1 0 0 0 58 62 A 1 1 0 0 0 59 61 A 1 1 0 0 0 58 60 z M 61 63 A 1 1 0 0 0 60 64 A 1 1 0 0 0 61 65 A 1 1 0 0 0 62 64 A 1 1 0 0 0 61 63 z M 65.037109 66.332031 A 1.0001 1.0001 0 0 0 64.882812 66.533203 A 1 1 0 0 0 64.865234 66.501953L65.037109 66.332031 z" fill="#00D676" />
</svg>