<svg xmlns="http://www.w3.org/2000/svg" xmlns:xlink="http://www.w3.org/1999/xlink" viewBox="0 0 50 50" fill="#FFD900">
  <path d="M48.898438 13.5C46.601563 7.800781 42.199219 3.398438 36.5 1.101563C36.199219 1 36 1 35.699219 1.101563C35.5 1.199219 35.300781 1.398438 35.199219 1.601563L34.199219 3.898438C31.699219 2.800781 29 2.199219 26.199219 2C26.101563 2 26.101563 2 26 2C26 2 25.898438 2 25.898438 2C25.601563 2 25.300781 2 25 2C12.300781 2 2 12.300781 2 25C2 25.300781 2 25.601563 2 25.898438C2 25.898438 2 26 2 26C2 26.101563 2 26.101563 2 26.101563C2.601563 38.300781 12.699219 48 25 48C31 48 36.398438 45.699219 40.5 41.898438L23.601563 25L4 25C4 13.398438 13.398438 4 25 4L25 23.601563L41.898438 40.5C45.699219 36.398438 48 31 48 25C48 21.800781 47.300781 18.699219 46.101563 15.800781L48.398438 14.800781C48.601563 14.699219 48.800781 14.5 48.898438 14.300781C49 14 49 13.800781 48.898438 13.5 Z M 44.300781 14.300781C44.300781 14.398438 44.300781 14.300781 44.300781 14.300781C44.300781 14.398438 44.300781 14.398438 44.300781 14.300781L29.5 20.398438L36.601563 3.300781C41 5.398438 44.601563 8.898438 46.601563 13.300781Z" fill="#FFD900" />
</svg>